<?xml version="1.0" encoding="UTF-8" standalone="no"?>
<svg width="11.2889mm" height="11.2889mm"
 viewBox="0 0 32 32"
 xmlns="http://www.w3.org/2000/svg" xmlns:xlink="http://www.w3.org/1999/xlink"  version="1.2" baseProfile="tiny">
<title>Qt SVG Document</title>
<desc>Generated with Qt</desc>
<defs>
</defs>
<g fill="none" stroke="black" stroke-width="1" fill-rule="evenodd" stroke-linecap="square" stroke-linejoin="bevel" >

<g fill="none" stroke="#000000" stroke-opacity="1" stroke-width="1" stroke-linecap="square" stroke-linejoin="bevel" transform="matrix(1,0,0,1,19.4016,5.79528)"
font-family="MS Shell Dlg 2" font-size="8.25" font-weight="400" font-style="normal" 
>
</g>

<g fill="none" stroke="#000000" stroke-opacity="1" stroke-width="1" stroke-linecap="square" stroke-linejoin="bevel" transform="matrix(1.33333,0,0,1.33333,19.4016,5.79528)"
font-family="MS Shell Dlg 2" font-size="8.25" font-weight="400" font-style="normal" 
>
</g>

<g fill="#000000" fill-opacity="1" stroke="none" transform="matrix(0.982677,0,0,0.982677,12.0315,-1.5748)"
font-family="MS Shell Dlg 2" font-size="8.25" font-weight="400" font-style="normal" 
>
<path vector-effect="none" fill-rule="nonzero" d="M7.5,4 C8.05,4 8.5,4.45 8.5,5 L8.5,14 C8.5,14 8.5,15 7.5,15 C6.5,15 6.5,14 6.5,14 L6.5,5 C6.5,4.45 6.95,4 7.5,4 M4.71,2.53 C4.48,2.56 4.58,2.52 4.4,2.65 C3.2,3.84 3.2,6.16 4.4,7.35 C4.59,7.55 4.91,7.55 5.1,7.35 C5.3,7.16 5.3,6.84 5.1,6.65 C4.3,5.84 4.3,4.16 5.1,3.35 C5.3,3.16 5.3,2.84 5.1,2.65 L4.94,2.54 L4.71,2.53 M9.96,2.53 C9.73,2.56 9.83,2.52 9.65,2.65 C9.45,2.84 9.45,3.16 9.65,3.35 C10.45,4.16 10.45,5.84 9.65,6.65 C9.45,6.84 9.45,7.16 9.65,7.35 C9.84,7.55 10.16,7.55 10.35,7.35 C11.55,6.16 11.55,3.84 10.35,2.65 L10.19,2.54 L9.96,2.53 M12.16,0.53 C11.72,0.55 11.88,0.47 11.63,0.67 C11.44,0.88 11.46,1.19 11.67,1.37 C13.7,3.18 13.7,6.83 11.67,8.63 C11.46,8.81 11.44,9.13 11.63,9.33 C11.81,9.54 12.13,9.56 12.33,9.37 C14.82,7.18 14.82,2.83 12.33,0.63 L12.16,0.53 M2.84,0.53 L2.67,0.63 C0.18,2.83 0.18,7.18 2.67,9.37 C2.88,9.56 3.19,9.54 3.37,9.33 C3.56,9.13 3.54,8.81 3.33,8.63 C1.3,6.83 1.3,3.18 3.33,1.37 C3.54,1.19 3.56,0.88 3.37,0.67 C3.12,0.47 3.28,0.55 2.84,0.53 "/>
</g>

<g fill="none" stroke="#000000" stroke-opacity="1" stroke-width="1" stroke-linecap="square" stroke-linejoin="bevel" transform="matrix(1.33333,0,0,1.33333,19.4016,5.79528)"
font-family="MS Shell Dlg 2" font-size="8.25" font-weight="400" font-style="normal" 
>
</g>

<g fill="none" stroke="#000000" stroke-opacity="1" stroke-width="1" stroke-linecap="square" stroke-linejoin="bevel" transform="matrix(1,0,0,1,19.4016,5.79528)"
font-family="MS Shell Dlg 2" font-size="8.25" font-weight="400" font-style="normal" 
>
</g>

<g fill="none" stroke="#000000" stroke-opacity="1" stroke-width="1" stroke-linecap="square" stroke-linejoin="bevel" transform="matrix(1,0,0,1,0,0)"
font-family="MS Shell Dlg 2" font-size="8.25" font-weight="400" font-style="normal" 
>
</g>

<g fill="none" stroke="#000000" stroke-opacity="1" stroke-width="1" stroke-linecap="square" stroke-linejoin="bevel" transform="matrix(1,0,0,1,13.7323,16)"
font-family="MS Shell Dlg 2" font-size="8.25" font-weight="400" font-style="normal" 
>
</g>

<g fill="none" stroke="#000000" stroke-opacity="1" stroke-width="1" stroke-linecap="square" stroke-linejoin="bevel" transform="matrix(1.33333,0,0,1.33333,13.7323,16)"
font-family="MS Shell Dlg 2" font-size="8.25" font-weight="400" font-style="normal" 
>
</g>

<g fill="#0b87e3" fill-opacity="1" stroke="none" transform="matrix(0.0351889,0,0,0.0351889,3.52756,5.79528)"
font-family="MS Shell Dlg 2" font-size="8.25" font-weight="400" font-style="normal" 
>
<path vector-effect="none" fill-rule="nonzero" d="M402.9,318.249 L465.85,297.81 L401.086,98.358 L330.689,121.215 L338.208,144.369 C332.928,139.638 326.72,134.367 319.074,127.208 L310.935,129.543 C321.226,119.891 327.629,106.397 327.629,91.453 C327.629,62.113 302.984,38.33 272.588,38.33 C242.191,38.33 217.549,62.113 217.549,91.453 C217.549,117.298 236.673,138.822 262.006,143.585 L250.63,146.85 C226.392,180.055 210.706,224.483 186.467,242.254 C167.455,254.412 159.103,251.141 134.387,253.479 L134.276,208.583 L114.456,208.583 L114.147,539.003 L133.645,539.468 L134.276,298.372 C172.774,297.438 186.467,295.101 210.707,291.36 C233.997,283.876 247.305,269.38 266.316,256.284 L276.132,323.745 C276.132,323.745 181.349,538.251 192.171,539.684 C217.925,543.104 250.299,541.059 250.299,541.059 C250.299,541.059 317.388,368.649 339.906,368.965 C361.055,369.281 397.937,539.586 397.937,539.586 L454.041,539.586 L406.216,332.775 C405.05,327.667 403.947,322.834 402.9,318.249 "/>
</g>

<g fill="none" stroke="#000000" stroke-opacity="1" stroke-width="32.2221" stroke-linecap="butt" stroke-linejoin="miter" stroke-miterlimit="4" transform="matrix(0.0351889,0,0,0.0351889,3.52756,5.79528)"
font-family="MS Shell Dlg 2" font-size="8.25" font-weight="400" font-style="normal" 
>
<path vector-effect="none" fill-rule="nonzero" d="M402.9,318.249 L465.85,297.81 L401.086,98.358 L330.689,121.215 L338.208,144.369 C332.928,139.638 326.72,134.367 319.074,127.208 L310.935,129.543 C321.226,119.891 327.629,106.397 327.629,91.453 C327.629,62.113 302.984,38.33 272.588,38.33 C242.191,38.33 217.549,62.113 217.549,91.453 C217.549,117.298 236.673,138.822 262.006,143.585 L250.63,146.85 C226.392,180.055 210.706,224.483 186.467,242.254 C167.455,254.412 159.103,251.141 134.387,253.479 L134.276,208.583 L114.456,208.583 L114.147,539.003 L133.645,539.468 L134.276,298.372 C172.774,297.438 186.467,295.101 210.707,291.36 C233.997,283.876 247.305,269.38 266.316,256.284 L276.132,323.745 C276.132,323.745 181.349,538.251 192.171,539.684 C217.925,543.104 250.299,541.059 250.299,541.059 C250.299,541.059 317.388,368.649 339.906,368.965 C361.055,369.281 397.937,539.586 397.937,539.586 L454.041,539.586 L406.216,332.775 C405.05,327.667 403.947,322.834 402.9,318.249 "/>
</g>

<g fill="none" stroke="#000000" stroke-opacity="1" stroke-width="1" stroke-linecap="square" stroke-linejoin="bevel" transform="matrix(1.33333,0,0,1.33333,13.7323,16)"
font-family="MS Shell Dlg 2" font-size="8.25" font-weight="400" font-style="normal" 
>
</g>

<g fill="none" stroke="#000000" stroke-opacity="1" stroke-width="1" stroke-linecap="square" stroke-linejoin="bevel" transform="matrix(1,0,0,1,13.7323,16)"
font-family="MS Shell Dlg 2" font-size="8.25" font-weight="400" font-style="normal" 
>
</g>

<g fill="none" stroke="#000000" stroke-opacity="1" stroke-width="1" stroke-linecap="square" stroke-linejoin="bevel" transform="matrix(1,0,0,1,0,0)"
font-family="MS Shell Dlg 2" font-size="8.25" font-weight="400" font-style="normal" 
>
</g>
</g>
</svg>
