<?xml version="1.0" encoding="UTF-8" standalone="no"?>
<svg width="11.2889mm" height="11.2889mm"
 viewBox="0 0 32 32"
 xmlns="http://www.w3.org/2000/svg" xmlns:xlink="http://www.w3.org/1999/xlink"  version="1.2" baseProfile="tiny">
<title>Qt SVG Document</title>
<desc>Generated with Qt</desc>
<defs>
</defs>
<g fill="none" stroke="black" stroke-width="1" fill-rule="evenodd" stroke-linecap="square" stroke-linejoin="bevel" >

<g fill="none" stroke="#000000" stroke-opacity="1" stroke-width="1" stroke-linecap="square" stroke-linejoin="bevel" transform="matrix(1,0,0,1,16,16)"
font-family="MS Shell Dlg 2" font-size="8.25" font-weight="400" font-style="normal" 
>
</g>

<g fill="none" stroke="#000000" stroke-opacity="1" stroke-width="1" stroke-linecap="square" stroke-linejoin="bevel" transform="matrix(1.33333,0,0,1.33333,16,16)"
font-family="MS Shell Dlg 2" font-size="8.25" font-weight="400" font-style="normal" 
>
</g>

<g fill="#ff0038" fill-opacity="1" stroke="none" transform="matrix(0.39685,0,0,0.39685,6.07874,6.07874)"
font-family="MS Shell Dlg 2" font-size="8.25" font-weight="400" font-style="normal" 
>
<path vector-effect="none" fill-rule="nonzero" d="M45.7,24.15 L37.81,10.86 C37.5,10.28 36.74,10.01 36.09,10.01 L29,10.01 L29,4.01 C29,2.91 28.1,2.01 27,2.01 L22,2.01 C20.9,2.01 20,2.91 20,4.01 L20,10.01 L14.04,10.01 C13.39,10.01 12.6,10.28 12.29,10.86 L4.37,24.26 C3.07,24.26 2,25.25 2,26.58 L2,38.72 C2,40.06 3.06,41.01 4.37,41.01 L7.01,41.01 L7.01,44.79 C7.01,46.79 8.34,48.01 10.29,48.01 L11.47,48.01 C13.42,48.01 15.01,46.79 15.01,44.79 L15.01,41.01 L35.01,41.01 L35.01,44.79 C35.01,46.79 36.72,48.01 38.68,48.01 L39.86,48.01 C41.81,48.01 43.01,46.79 43.01,44.79 L43.01,41.01 L45.77,41.01 C47.07,41.01 48.01,40.06 48.01,38.72 L48.01,26.58 C48.01,25.25 47.01,24.15 45.71,24.15 L45.7,24.15 M8.51,33.86 C6.88,33.86 5.55,32.5 5.55,30.83 C5.55,29.15 6.87,27.8 8.51,27.8 C10.15,27.8 11.47,29.16 11.47,30.84 C11.47,32.52 10.15,33.87 8.51,33.87 L8.51,33.86 M10.28,24.01 L15.66,14.63 C15.95,14.03 16.72,14.01 17.37,14.01 L32.75,14.01 C33.4,14.01 34.17,14.04 34.46,14.63 L39.85,24.01 L10.28,24.01 M41.62,33.87 C39.99,33.87 38.66,32.51 38.66,30.84 C38.66,29.16 39.99,27.81 41.62,27.81 C43.25,27.81 44.58,29.17 44.58,30.85 C44.58,32.53 43.26,33.88 41.62,33.88 L41.62,33.87"/>
</g>

<g fill="none" stroke="#000000" stroke-opacity="1" stroke-width="2.85714" stroke-linecap="butt" stroke-linejoin="miter" stroke-miterlimit="4" transform="matrix(0.39685,0,0,0.39685,6.07874,6.07874)"
font-family="MS Shell Dlg 2" font-size="8.25" font-weight="400" font-style="normal" 
>
<path vector-effect="none" fill-rule="nonzero" d="M45.7,24.15 L37.81,10.86 C37.5,10.28 36.74,10.01 36.09,10.01 L29,10.01 L29,4.01 C29,2.91 28.1,2.01 27,2.01 L22,2.01 C20.9,2.01 20,2.91 20,4.01 L20,10.01 L14.04,10.01 C13.39,10.01 12.6,10.28 12.29,10.86 L4.37,24.26 C3.07,24.26 2,25.25 2,26.58 L2,38.72 C2,40.06 3.06,41.01 4.37,41.01 L7.01,41.01 L7.01,44.79 C7.01,46.79 8.34,48.01 10.29,48.01 L11.47,48.01 C13.42,48.01 15.01,46.79 15.01,44.79 L15.01,41.01 L35.01,41.01 L35.01,44.79 C35.01,46.79 36.72,48.01 38.68,48.01 L39.86,48.01 C41.81,48.01 43.01,46.79 43.01,44.79 L43.01,41.01 L45.77,41.01 C47.07,41.01 48.01,40.06 48.01,38.72 L48.01,26.58 C48.01,25.25 47.01,24.15 45.71,24.15 L45.7,24.15 M8.51,33.86 C6.88,33.86 5.55,32.5 5.55,30.83 C5.55,29.15 6.87,27.8 8.51,27.8 C10.15,27.8 11.47,29.16 11.47,30.84 C11.47,32.52 10.15,33.87 8.51,33.87 L8.51,33.86 M10.28,24.01 L15.66,14.63 C15.95,14.03 16.72,14.01 17.37,14.01 L32.75,14.01 C33.4,14.01 34.17,14.04 34.46,14.63 L39.85,24.01 L10.28,24.01 M41.62,33.87 C39.99,33.87 38.66,32.51 38.66,30.84 C38.66,29.16 39.99,27.81 41.62,27.81 C43.25,27.81 44.58,29.17 44.58,30.85 C44.58,32.53 43.26,33.88 41.62,33.88 L41.62,33.87"/>
</g>

<g fill="none" stroke="#000000" stroke-opacity="1" stroke-width="1" stroke-linecap="square" stroke-linejoin="bevel" transform="matrix(1.33333,0,0,1.33333,16,16)"
font-family="MS Shell Dlg 2" font-size="8.25" font-weight="400" font-style="normal" 
>
</g>

<g fill="none" stroke="#000000" stroke-opacity="1" stroke-width="1" stroke-linecap="square" stroke-linejoin="bevel" transform="matrix(1,0,0,1,16,16)"
font-family="MS Shell Dlg 2" font-size="8.25" font-weight="400" font-style="normal" 
>
</g>

<g fill="none" stroke="#000000" stroke-opacity="1" stroke-width="1" stroke-linecap="square" stroke-linejoin="bevel" transform="matrix(1,0,0,1,0,0)"
font-family="MS Shell Dlg 2" font-size="8.25" font-weight="400" font-style="normal" 
>
</g>

<g fill="none" stroke="#000000" stroke-opacity="1" stroke-width="1" stroke-linecap="square" stroke-linejoin="bevel" transform="matrix(1,0,0,1,16,0.692913)"
font-family="MS Shell Dlg 2" font-size="8.25" font-weight="400" font-style="normal" 
>
</g>

<g fill="none" stroke="#000000" stroke-opacity="1" stroke-width="1" stroke-linecap="square" stroke-linejoin="bevel" transform="matrix(1.33333,0,0,1.33333,16,0.692913)"
font-family="MS Shell Dlg 2" font-size="8.25" font-weight="400" font-style="normal" 
>
</g>

<g fill="#000400" fill-opacity="1" stroke="none" transform="matrix(0.124258,0,0,0.124258,9.19685,-6.11024)"
font-family="MS Shell Dlg 2" font-size="8.25" font-weight="400" font-style="normal" 
>
<path vector-effect="none" fill-rule="nonzero" d="M90.168,96.942 L13.447,20.221 L19.811,13.857 L96.533,90.578 L90.169,96.942 L90.168,96.942"/>
</g>

<g fill="none" stroke="#000000" stroke-opacity="1" stroke-width="1" stroke-linecap="butt" stroke-linejoin="miter" stroke-miterlimit="4" transform="matrix(0.124258,0,0,0.124258,9.19685,-6.11024)"
font-family="MS Shell Dlg 2" font-size="8.25" font-weight="400" font-style="normal" 
>
<path vector-effect="none" fill-rule="nonzero" d="M90.168,96.942 L13.447,20.221 L19.811,13.857 L96.533,90.578 L90.169,96.942 L90.168,96.942"/>
</g>

<g fill="#000400" fill-opacity="1" stroke="none" transform="matrix(0.124258,0,0,0.124258,9.19685,-6.11024)"
font-family="MS Shell Dlg 2" font-size="8.25" font-weight="400" font-style="normal" 
>
<path vector-effect="none" fill-rule="nonzero" d="M19.811,96.588 L13.27,90.047 L89.991,13.326 L96.531,19.867 L19.811,96.588"/>
</g>

<g fill="none" stroke="#000000" stroke-opacity="1" stroke-width="1" stroke-linecap="butt" stroke-linejoin="miter" stroke-miterlimit="4" transform="matrix(0.124258,0,0,0.124258,9.19685,-6.11024)"
font-family="MS Shell Dlg 2" font-size="8.25" font-weight="400" font-style="normal" 
>
<path vector-effect="none" fill-rule="nonzero" d="M19.811,96.588 L13.27,90.047 L89.991,13.326 L96.531,19.867 L19.811,96.588"/>
</g>

<g fill="#000400" fill-opacity="1" stroke="none" transform="matrix(0.124258,0,0,0.124258,9.19685,-6.11024)"
font-family="MS Shell Dlg 2" font-size="8.25" font-weight="400" font-style="normal" 
>
<path vector-effect="none" fill-rule="nonzero" d="M109,59.5 L0.5,59.5 L0.5,50.5 L109,50.5 L109,59.5"/>
</g>

<g fill="none" stroke="#000000" stroke-opacity="1" stroke-width="1" stroke-linecap="butt" stroke-linejoin="miter" stroke-miterlimit="4" transform="matrix(0.124258,0,0,0.124258,9.19685,-6.11024)"
font-family="MS Shell Dlg 2" font-size="8.25" font-weight="400" font-style="normal" 
>
<path vector-effect="none" fill-rule="nonzero" d="M109,59.5 L0.5,59.5 L0.5,50.5 L109,50.5 L109,59.5"/>
</g>

<g fill="#000400" fill-opacity="1" stroke="none" transform="matrix(0.124258,0,0,0.124258,9.19685,-6.11024)"
font-family="MS Shell Dlg 2" font-size="8.25" font-weight="400" font-style="normal" 
>
<path vector-effect="none" fill-rule="nonzero" d="M59,109 L49.75,109 L49.75,0.5 L59,0.5 L59,109"/>
</g>

<g fill="none" stroke="#000000" stroke-opacity="1" stroke-width="1" stroke-linecap="butt" stroke-linejoin="miter" stroke-miterlimit="4" transform="matrix(0.124258,0,0,0.124258,9.19685,-6.11024)"
font-family="MS Shell Dlg 2" font-size="8.25" font-weight="400" font-style="normal" 
>
<path vector-effect="none" fill-rule="nonzero" d="M59,109 L49.75,109 L49.75,0.5 L59,0.5 L59,109"/>
</g>

<g fill="#006ba0" fill-opacity="1" stroke="none" transform="matrix(0.124258,0,0,0.124258,9.19685,-6.11024)"
font-family="MS Shell Dlg 2" font-size="8.25" font-weight="400" font-style="normal" 
>
<path vector-effect="none" fill-rule="nonzero" d="M67.534,54.75 C67.534,47.482 61.642,41.591 54.375,41.591 C47.108,41.591 41.216,47.482 41.216,54.75 C41.216,62.018 47.108,67.909 54.375,67.909 C61.642,67.909 67.534,62.017 67.534,54.75 "/>
</g>

<g fill="none" stroke="#000000" stroke-opacity="1" stroke-width="1" stroke-linecap="butt" stroke-linejoin="miter" stroke-miterlimit="4" transform="matrix(0.124258,0,0,0.124258,9.19685,-6.11024)"
font-family="MS Shell Dlg 2" font-size="8.25" font-weight="400" font-style="normal" 
>
<path vector-effect="none" fill-rule="nonzero" d="M67.534,54.75 C67.534,47.482 61.642,41.591 54.375,41.591 C47.108,41.591 41.216,47.482 41.216,54.75 C41.216,62.018 47.108,67.909 54.375,67.909 C61.642,67.909 67.534,62.017 67.534,54.75 "/>
</g>

<g fill="none" stroke="#000000" stroke-opacity="1" stroke-width="1" stroke-linecap="square" stroke-linejoin="bevel" transform="matrix(1.33333,0,0,1.33333,16,0.692913)"
font-family="MS Shell Dlg 2" font-size="8.25" font-weight="400" font-style="normal" 
>
</g>

<g fill="none" stroke="#000000" stroke-opacity="1" stroke-width="1" stroke-linecap="square" stroke-linejoin="bevel" transform="matrix(1,0,0,1,16,0.692913)"
font-family="MS Shell Dlg 2" font-size="8.25" font-weight="400" font-style="normal" 
>
</g>

<g fill="none" stroke="#000000" stroke-opacity="1" stroke-width="1" stroke-linecap="square" stroke-linejoin="bevel" transform="matrix(1,0,0,1,0,0)"
font-family="MS Shell Dlg 2" font-size="8.25" font-weight="400" font-style="normal" 
>
</g>
</g>
</svg>
